<svg xmlns="http://www.w3.org/2000/svg" width="56" height="56" viewBox="0 0 56 56"><defs><filter id="dpvqa" width="156%" height="156%" x="-18%" y="-18%" filterUnits="objectBoundingBox"><feGaussianBlur in="SourceGraphic" result="FeGaussianBlur1192Out" stdDeviation="1.875 1.875"/></filter><clipPath id="dpvqb"><path fill="#fff" d="M22.5 45C34.926 45 45 34.926 45 22.5S34.926 0 22.5 0 0 10.074 0 22.5 10.074 45 22.5 45z"/></clipPath></defs><g><g filter="url(#dpvqa)"><path fill="#eff8ed" d="M28.5 51C40.926 51 51 40.926 51 28.5S40.926 6 28.5 6 6 16.074 6 28.5 16.074 51 28.5 51z"/></g><g opacity=".49"><path fill="none" stroke="#4a3c3a" stroke-miterlimit="20" d="M22.5 45C34.926 45 45 34.926 45 22.5S34.926 0 22.5 0 0 10.074 0 22.5 10.074 45 22.5 45z" clip-path="url(&quot;#dpvqb&quot;)"/></g></g></svg>