<svg xmlns="http://www.w3.org/2000/svg" width="149" height="149" viewBox="0 0 149 149"><defs><filter id="yccta" width="156%" height="156%" x="-18%" y="-18%" filterUnits="objectBoundingBox"><feGaussianBlur in="SourceGraphic" result="FeGaussianBlur1153Out" stdDeviation="5 5"/></filter><clipPath id="ycctb"><path fill="#fff" d="M60 120c33.137 0 60-26.863 60-60S93.137 0 60 0 0 26.863 0 60s26.863 60 60 60z"/></clipPath></defs><g><g filter="url(#yccta)"><path fill="#eff8ed" d="M76 136c33.137 0 60-26.863 60-60s-26.863-60-60-60-60 26.863-60 60 26.863 60 60 60z"/></g><g opacity=".49"><path fill="none" stroke="#4a3c3a" stroke-miterlimit="20" stroke-width="2" d="M60 120c33.137 0 60-26.863 60-60S93.137 0 60 0 0 26.863 0 60s26.863 60 60 60z" clip-path="url(&quot;#ycctb&quot;)"/></g></g></svg>