<svg xmlns="http://www.w3.org/2000/svg" width="26" height="34" viewBox="0 0 26 34"><g><g><g><path d="M3.21 29.642c.34-.219.75-.394 1.252-.531l4.802-1.64c.524-.139.898-.554 1-1.111.074-.396.124-1.003.151-1.804a.47.47 0 0 0-.236-.423 10.505 10.505 0 0 1-3.384-3.123c-.33-.473-.472-.933-.45-1.448.024-.546.021-1.095.017-1.566a.477.477 0 0 0-.46-.467c-.233-.01-.371-.077-.479-.415-.096-.3-.277-.942-.591-2.287a2.45 2.45 0 0 0-.028-.11c-.104-.314-.107-.56-.008-.69.096-.127.334-.202.653-.19.222-.018.424-.146.477-.36a.464.464 0 0 0-.093-.41c-.166-.438-.466-2.71-.581-3.58-.069-.518-.1-.75-.119-.837-.06-.275-.035-.483.074-.617.172-.214.55-.264.64-.266a.481.481 0 0 0 .44-.29c.073-.171.037-.282-.056-.577-.3-.94-.324-1.267-.292-1.376.156-.459.526-.715.808-.849a.497.497 0 0 0 .268-.486c-.005-.053-.01-.106-.01-.16 0-1.426 1.511-2.586 3.369-2.586.774 0 1.504.2 2.112.578a.487.487 0 0 0 .624-.092c.523-.602 1.31-.946 2.157-.946 1.505 0 2.73 1.09 2.728 2.45l-.004.058a.469.469 0 0 0 .183.388c.12.094.279.125.426.085.192-.052.386-.078.576-.078 1.153 0 2.09.887 2.09 1.978 0 .201-.033.401-.096.593-.048.144-.01.301.08.424.09.122.247.194.401.194.839 0 1.52.644 1.52 1.434 0 .386-.16.75-.454 1.022a.466.466 0 0 0-.108.534c.08.178.123.37.127.569.004.24.193.44.437.462a2.67 2.67 0 0 0 1.094-.132c-.224.49-.525.848-.9 1.071-.708.42-1.498.237-1.805.138a.498.498 0 0 0-.21-.02 1.748 1.748 0 0 1-.206.016l-.056-.004a.477.477 0 0 0-.452.263c-.096.19-.377.485-.454.541a.467.467 0 0 0-.205.535c.061.203.237.34.47.337.32-.01.56.063.656.19.099.13.096.375-.008.69-.001.003-.012.041-.027.108-.315 1.345-.495 1.986-.591 2.287-.109.34-.25.386-.396.407a.475.475 0 0 0-.414.466v.4c-.002.475-.003.949-.008 1.423-.002.23-.11.618-.222.8-.97 1.568-2.193 2.762-3.638 3.55a.47.47 0 0 0-.248.428c.027.803.078 1.401.154 1.779.11.555.483.968.966 1.094l4.85 1.655c.53.144 1.004.36 1.406.638 1.504 1.044 1.76 2.547 1.857 3.271h-23.6c.104-.72.4-2.34 2.024-3.385zm22.498 3.968c.014-.053.026-.085.035-.107a.562.562 0 0 0 .036-.333c-.009-.04-.016-.1-.026-.178-.095-.735-.35-2.684-2.268-4.016a5.44 5.44 0 0 0-1.675-.768l-4.854-1.656c-.201-.052-.277-.231-.305-.372-.055-.281-.098-.743-.125-1.345 1.481-.867 2.737-2.124 3.736-3.74.202-.326.358-.876.362-1.28.005-.476.006-.953.007-1.43v-.05c.362-.164.618-.48.766-.941.101-.318.29-.984.61-2.358l.006-.03c.259-.783.07-1.27-.135-1.54-.083-.11-.2-.227-.367-.327.838.204 1.682.1 2.353-.298.887-.527 1.46-1.509 1.702-2.92a.47.47 0 0 0-.282-.512.49.49 0 0 0-.574.145c-.273.348-.686.532-1.067.587a1.965 1.965 0 0 0-.042-.16c.346-.42.533-.931.533-1.473 0-1.123-.816-2.066-1.925-2.314.013-.11.02-.22.02-.33 0-1.691-1.527-3.057-3.304-2.912C18.677 1.31 17.13.04 15.267.04c-.99 0-1.92.357-2.61.99A5.034 5.034 0 0 0 10.374.5c-2.37 0-4.3 1.558-4.332 3.482-.488.304-.844.737-1.016 1.245-.13.386-.023.944.208 1.705-.26.085-.555.237-.776.508-.206.252-.42.7-.266 1.405.015.077.053.366.105.762.238 1.792.391 2.788.517 3.354-.408.106-.65.315-.79.501-.205.271-.395.758-.145 1.512l.015.062c.321 1.374.51 2.04.61 2.358.166.516.467.85.898.994.001.36-.002.748-.018 1.13-.032.718.17 1.38.615 2.02a11.456 11.456 0 0 0 3.443 3.257c-.026.612-.069 1.09-.124 1.391-.026.138-.098.313-.337.377l-4.805 1.64c-.568.154-1.07.37-1.493.642C.604 30.178.313 32.3.217 32.998c-.01.074-.018.133-.025.17-.033.153.012.271.036.335.008.023.02.055.035.107a.48.48 0 0 0 .465.352h24.515c.218 0 .41-.144.465-.352z"/></g><g><path d="M12.949 19.877c.486 0 .958-.211 1.26-.564a.085.085 0 0 0-.008-.12.086.086 0 0 0-.12.009c-.248.28-.66.442-1.132.442-.472 0-.885-.161-1.132-.442a.085.085 0 0 0-.065-.029.085.085 0 0 0-.065.14c.304.353.775.564 1.262.564zm3.427-5.65c-.268 0-.507.15-.67.385a.423.423 0 0 1 .163-.034c.257 0 .465.23.465.512 0 .282-.208.511-.465.511-.16 0-.3-.088-.384-.223.012.608.406 1.096.89 1.096.493 0 .892-.503.892-1.123s-.4-1.123-.891-1.123zm-6.816 0c-.315 0-.592.205-.752.513.04-.012.081-.02.125-.02.258 0 .468.229.468.511 0 .283-.21.512-.468.512a.437.437 0 0 1-.232-.07c.11.464.453.802.859.802.495 0 .896-.503.896-1.123 0-.621-.4-1.124-.896-1.124zm8.396-.54l.308-.581c-1.302-.3-2.8-.252-4.037.125l.388.566c1.016-.33 2.267-.372 3.34-.11zm-6.569.185l.37-.551c-1.266-.438-2.764-.547-4.037-.298l.325.61c1.049-.225 2.3-.136 3.342.24zm12.112-1.31c.802-.478 1.323-1.373 1.549-2.662a.237.237 0 0 0-.197-.273.241.241 0 0 0-.278.193c-.2 1.147-.646 1.934-1.324 2.338-.785.467-1.654.271-1.99.164a.235.235 0 0 0-.105-.01c-.619.078-1.267-.159-1.665-.631a.243.243 0 0 0-.25-.077c-1.15.315-2.398-.225-2.893-1.217a.243.243 0 0 0-.323-.108 5.33 5.33 0 0 1-2.303.508c-2 0-3.776-1.084-4.222-2.578a.24.24 0 0 0-.308-.157 2.95 2.95 0 0 1-1.761 0c-.72-.216-1.3-.665-1.595-1.23-.21-.403-.25-.821-.116-1.21a.236.236 0 0 0-.15-.3.242.242 0 0 0-.306.148c-.175.505-.124 1.065.143 1.577.353.678 1.04 1.213 1.882 1.467a3.493 3.493 0 0 0 1.825.062c.607 1.598 2.462 2.694 4.608 2.694a5.86 5.86 0 0 0 2.307-.463c.626 1.022 1.945 1.579 3.194 1.298.49.51 1.227.773 1.942.692a3.3 3.3 0 0 0 .942.14c.504 0 .986-.123 1.394-.365z"/></g><g><path d="M12.951 22.172c-1.453 0-2.862-.434-3.77-1.161a.083.083 0 0 1-.012-.118.087.087 0 0 1 .12-.013c.804.629 2.139.99 3.662.99 1.523 0 2.858-.361 3.662-.99a.086.086 0 0 1 .12.013.083.083 0 0 1-.013.118c-.908.727-2.316 1.161-3.769 1.161zm-1.196-2.907c.286.332.734.53 1.195.53a1.6 1.6 0 0 0 1.197-.528c-.265.293-.7.462-1.197.462-.495 0-.931-.169-1.195-.464zm1.2.695c-.512 0-1.009-.219-1.33-.586a.165.165 0 0 1 .018-.234.179.179 0 0 1 .24.016c.233.26.624.408 1.072.408.45 0 .84-.148 1.073-.408a.175.175 0 0 1 .239-.017c.071.06.08.166.019.235-.32.367-.818.586-1.33.586z"/></g><g><path d="M17.88 29.992a.243.243 0 0 1-.218-.13.23.23 0 0 1 .112-.312 27.037 27.037 0 0 0 1.534-.776.245.245 0 0 1 .328.088.229.229 0 0 1-.09.317c-.51.279-1.036.544-1.563.79a.235.235 0 0 1-.104.023zm-12.127 2.57c-1.56 0-3.193-.09-4.879-.273a.237.237 0 0 1-.213-.26.242.242 0 0 1 .266-.208c4.681.507 8.946.3 12.333-.603a26.662 26.662 0 0 0 3.233-1.088.243.243 0 0 1 .315.126.233.233 0 0 1-.13.308 27.02 27.02 0 0 1-3.292 1.108c-2.219.592-4.805.89-7.633.89zm7.37-6.909c-1.256 0-3.26-1.162-3.35-1.213a.232.232 0 0 1-.082-.323.244.244 0 0 1 .33-.08c.596.347 2.337 1.224 3.23 1.14 1.098-.11 2.703-1.095 2.72-1.106a.245.245 0 0 1 .331.073.232.232 0 0 1-.074.324c-.07.043-1.719 1.054-2.929 1.176-.057.006-.116.01-.177.01zm-3.89-4.717c.893.706 2.284 1.126 3.72 1.126 1.435 0 2.826-.42 3.72-1.124l.054.063-.053-.063v-.002c-.822.63-2.178.99-3.722.99-1.543 0-2.9-.36-3.719-.99zm3.714 1.301c-1.471 0-2.9-.438-3.823-1.173a.163.163 0 0 1-.024-.232.178.178 0 0 1 .238-.025c.79.613 2.105.965 3.609.965 1.505 0 2.82-.352 3.61-.965a.166.166 0 0 1 .123-.036.17.17 0 0 1 .114.061.162.162 0 0 1-.025.232c-.922.735-2.35 1.173-3.822 1.173z"/></g></g></g></svg>