<svg xmlns="http://www.w3.org/2000/svg" width="14" height="18" viewBox="0 0 14 18"><g><g><g><path fill="#4a3c3a" d="M1.695 15.687a2.38 2.38 0 0 1 .663-.281l2.545-.868a.724.724 0 0 0 .53-.588c.038-.21.065-.53.08-.955a.249.249 0 0 0-.126-.224 5.564 5.564 0 0 1-1.793-1.653 1.198 1.198 0 0 1-.238-.766c.013-.289.011-.58.009-.829a.252.252 0 0 0-.244-.247c-.123-.005-.196-.04-.253-.22a17.477 17.477 0 0 1-.329-1.268c-.054-.166-.056-.296-.004-.365.051-.068.177-.107.346-.101.118-.01.225-.077.253-.19a.245.245 0 0 0-.05-.217c-.087-.232-.246-1.435-.307-1.895a9.618 9.618 0 0 0-.063-.443c-.032-.146-.019-.256.039-.327.091-.113.291-.14.34-.14a.255.255 0 0 0 .232-.154c.039-.09.02-.149-.03-.305-.158-.497-.171-.671-.154-.728a.793.793 0 0 1 .428-.45.263.263 0 0 0 .142-.257c-.003-.028-.005-.056-.005-.085 0-.755.8-1.369 1.785-1.369.41 0 .797.106 1.119.306a.258.258 0 0 0 .33-.048C7.217.7 7.634.519 8.083.519c.798 0 1.446.577 1.446 1.297l-.002.03a.248.248 0 0 0 .096.206c.064.05.148.066.226.045a1.18 1.18 0 0 1 .305-.042c.611 0 1.108.47 1.108 1.047a.999.999 0 0 1-.051.314.248.248 0 0 0 .042.224.268.268 0 0 0 .213.103c.444 0 .805.341.805.76a.733.733 0 0 1-.24.54.246.246 0 0 0-.058.283.753.753 0 0 1 .067.3.253.253 0 0 0 .232.246c.196.018.395-.008.58-.07-.119.259-.278.448-.477.567-.375.222-.794.125-.957.073a.264.264 0 0 0-.11-.01.927.927 0 0 1-.11.007l-.03-.002a.253.253 0 0 0-.239.14c-.05.1-.2.256-.24.286a.247.247 0 0 0-.11.283c.033.107.126.18.25.178.17-.006.296.033.348.101.052.069.05.198-.005.365a17.477 17.477 0 0 1-.328 1.267c-.057.18-.131.205-.21.216a.251.251 0 0 0-.218.246v.212l-.004.753a1.034 1.034 0 0 1-.118.424c-.514.83-1.162 1.461-1.928 1.879a.249.249 0 0 0-.131.226c.014.425.041.742.081.941.059.294.256.513.512.58l2.57.875c.281.077.532.19.745.338.797.553.932 1.348.984 1.731H.623c.054-.381.212-1.239 1.072-1.791zm11.91 2.105a.571.571 0 0 1 .018-.057.297.297 0 0 0 .02-.176c-.005-.02-.009-.053-.014-.094-.05-.389-.185-1.421-1.201-2.126a2.88 2.88 0 0 0-.887-.407l-2.57-.876c-.106-.028-.146-.123-.161-.197a5.348 5.348 0 0 1-.066-.713c.784-.459 1.449-1.124 1.978-1.979.107-.173.19-.464.191-.678.003-.252.003-.504.004-.757v-.026c.191-.087.327-.254.405-.499.054-.168.154-.52.324-1.248l.003-.015c.137-.416.036-.674-.072-.817a.682.682 0 0 0-.194-.172c.443.108.89.053 1.246-.158.47-.279.772-.799.9-1.546a.25.25 0 0 0-.149-.27.26.26 0 0 0-.303.076.878.878 0 0 1-.566.31 1.042 1.042 0 0 0-.021-.085c.183-.221.282-.492.282-.779 0-.594-.432-1.094-1.02-1.225.008-.058.011-.116.011-.175 0-.895-.808-1.618-1.75-1.541C9.884.692 9.065.02 8.078.02c-.524 0-1.016.189-1.382.524a2.665 2.665 0 0 0-1.208-.28c-1.254 0-2.277.824-2.293 1.843-.259.161-.447.39-.538.659-.07.204-.013.5.11.902a.872.872 0 0 0-.411.27c-.11.133-.222.37-.141.743.008.041.028.194.056.404.125.949.207 1.476.273 1.775a.739.739 0 0 0-.418.266c-.108.143-.209.401-.076.8l.007.033c.17.727.27 1.08.324 1.248.087.274.246.45.475.527 0 .19-.001.396-.01.598-.017.38.09.73.326 1.07a6.065 6.065 0 0 0 1.823 1.724 5.938 5.938 0 0 1-.066.736c-.014.073-.052.166-.179.2l-2.543.868c-.301.082-.567.196-.79.34C.314 15.974.16 17.098.11 17.467l-.014.09c-.017.081.007.144.02.178l.018.056c.029.11.13.186.246.186H13.36a.253.253 0 0 0 .246-.186z"/></g><g><path fill="#4a3c3a" d="M6.854 10.517c.257 0 .507-.11.667-.294a.044.044 0 0 0-.005-.063.046.046 0 0 0-.063.005c-.131.146-.35.23-.6.23s-.468-.084-.599-.23a.045.045 0 0 0-.034-.015.045.045 0 0 0-.03.01.044.044 0 0 0-.004.063c.16.184.41.294.668.294zM8.668 7.53a.437.437 0 0 0-.355.203.225.225 0 0 1 .087-.018c.136 0 .246.12.246.27 0 .148-.11.269-.246.269a.24.24 0 0 1-.204-.117c.006.32.215.578.472.578.26 0 .472-.266.472-.593 0-.327-.212-.592-.472-.592zm-3.606 0c-.168 0-.315.107-.4.268a.234.234 0 0 1 .066-.01c.138 0 .249.119.249.267 0 .147-.112.267-.249.267a.235.235 0 0 1-.123-.036c.059.242.24.419.457.419.263 0 .477-.263.477-.587 0-.325-.214-.588-.477-.588zm4.447-.287l.163-.308a4.327 4.327 0 0 0-2.142.067l.206.3a3.398 3.398 0 0 1 1.773-.059zm-3.491.103l.194-.295a4.21 4.21 0 0 0-2.127-.159l.172.326a3.308 3.308 0 0 1 1.76.128zm6.42-.704c.425-.252.701-.726.82-1.408a.125.125 0 0 0-.103-.145.128.128 0 0 0-.147.102c-.107.608-.343 1.024-.701 1.237-.416.248-.876.144-1.054.087a.124.124 0 0 0-.055-.005 1.003 1.003 0 0 1-.882-.334.129.129 0 0 0-.133-.04c-.608.166-1.269-.12-1.531-.645a.129.129 0 0 0-.17-.057c-.366.176-.788.27-1.22.27-1.06 0-2-.574-2.236-1.365a.127.127 0 0 0-.163-.083 1.563 1.563 0 0 1-.932 0c-.38-.114-.688-.352-.844-.65a.796.796 0 0 1-.062-.641.125.125 0 0 0-.08-.158.128.128 0 0 0-.161.078 1.05 1.05 0 0 0 .076.834c.187.359.55.642.996.776.32.097.66.108.966.033.322.845 1.304 1.425 2.44 1.425.428 0 .848-.084 1.22-.244.333.54 1.03.835 1.692.686.26.27.65.409 1.028.366.167.05.335.075.499.075.267 0 .522-.066.738-.194z"/></g><g><path fill="#4a3c3a" d="M6.852 11.747c-.769 0-1.515-.234-1.995-.624a.045.045 0 0 1 .028-.08c.01 0 .02.003.029.01.425.337 1.132.53 1.938.53.807 0 1.513-.193 1.939-.53a.045.045 0 0 1 .057.07c-.48.39-1.227.623-1.996.624zm-.63-1.55c.151.176.387.28.63.28a.84.84 0 0 0 .63-.279c-.14.156-.369.245-.63.245s-.49-.09-.63-.246zm.63.368a.933.933 0 0 1-.699-.31.088.088 0 0 1 .01-.124.093.093 0 0 1 .126.009c.122.137.327.216.563.216.236 0 .441-.079.563-.216a.091.091 0 0 1 .126-.01.088.088 0 0 1 .01.125.933.933 0 0 1-.699.31z"/></g><g><path fill="#4a3c3a" d="M9.466 15.889a.128.128 0 0 1-.115-.07.124.124 0 0 1 .06-.168c.273-.13.547-.27.812-.417a.129.129 0 0 1 .173.047.124.124 0 0 1-.048.17c-.27.15-.548.293-.827.425a.123.123 0 0 1-.055.013zm-6.42 1.354c-.826 0-1.69-.048-2.583-.145a.126.126 0 0 1-.112-.138.128.128 0 0 1 .14-.11c2.479.269 4.736.159 6.53-.321.58-.155 1.157-.35 1.711-.578a.128.128 0 0 1 .167.067.124.124 0 0 1-.068.164c-.565.232-1.152.43-1.744.588-1.174.315-2.544.473-4.04.473zm3.902-3.655c-.665 0-1.726-.618-1.773-.645a.124.124 0 0 1-.044-.172.129.129 0 0 1 .175-.043c.315.185 1.237.652 1.71.607.58-.059 1.431-.583 1.44-.588a.13.13 0 0 1 .175.038.124.124 0 0 1-.04.173c-.036.023-.909.56-1.55.625a.82.82 0 0 1-.093.005zm-2.06-2.5c.473.374 1.208.596 1.967.596.76 0 1.495-.222 1.967-.595l.029.033-.028-.033v-.001c-.435.333-1.152.524-1.968.524-.816 0-1.533-.19-1.966-.524zm1.967.694c-.78 0-1.536-.234-2.024-.625a.087.087 0 0 1-.013-.124.094.094 0 0 1 .126-.013c.418.326 1.115.514 1.91.514.797 0 1.494-.188 1.912-.514A.087.087 0 0 1 8.83 11a.09.09 0 0 1 .06.033.087.087 0 0 1-.012.124c-.489.391-1.245.625-2.024.625z"/></g></g></g></svg>