<svg xmlns="http://www.w3.org/2000/svg" width="97" height="97" viewBox="0 0 97 97"><defs><filter id="m588a" width="168%" height="168%" x="-24%" y="-24%" filterUnits="objectBoundingBox"><feGaussianBlur in="SourceGraphic" result="FeGaussianBlur1018Out" stdDeviation="5 5"/></filter><clipPath id="m588b"><path fill="#fff" d="M39.74 75.482c19.74 0 35.742-16.002 35.742-35.741C75.482 20 59.48 4 39.74 4 20 4 4 20.002 4 39.74c0 19.74 16.002 35.742 35.74 35.742z"/></clipPath></defs><g><g><g filter="url(#m588a)"><path fill="#eff8ed" d="M48.26 84.002C68 84.002 84.003 68 84.003 48.26 84.002 28.52 68 12.52 48.26 12.52c-19.74 0-35.741 16.002-35.741 35.74 0 19.74 16.002 35.742 35.74 35.742z"/></g><g><g opacity=".49"><path fill="none" stroke="#4a3c3a" stroke-miterlimit="20" stroke-width="2" d="M39.74 75.482c19.74 0 35.742-16.002 35.742-35.741C75.482 20 59.48 4 39.74 4 20 4 4 20.002 4 39.74c0 19.74 16.002 35.742 35.74 35.742z" clip-path="url(&quot;#m588b&quot;)"/></g><g><path fill="none" stroke="#979797" stroke-miterlimit="20" d="M53.818 37.393L33.692 25.197c-1.806-1.003-4.082.285-4.082 2.393V51.3c0 2.097 2.264 3.396 4.082 2.393l20.126-11.512c1.875-1.038 1.875-3.74 0-4.788z"/></g></g></g></g></svg>