<svg xmlns="http://www.w3.org/2000/svg" width="66" height="65" viewBox="0 0 66 65"><g><g><g><path fill="#4a3c3a" d="M63.58 52c0 6.065-4.935 11-11 11h-39c-6.065 0-11-4.935-11-11V13c0-6.065 4.935-11 11-11h39c6.065 0 11 4.935 11 11zm-11-52h-39c-7.168 0-13 5.832-13 13v39c0 7.168 5.832 13 13 13h39c7.168 0 13-5.832 13-13V13c0-7.168-5.832-13-13-13z"/></g><g><path fill="#4a3c3a" d="M60.08 30a.5.5 0 0 0-.5.5v18.663c0 5.424-4.413 9.837-9.837 9.837H16.417c-5.424 0-9.837-4.413-9.837-9.837V15.837C6.58 10.413 10.993 6 16.417 6H50.08a.5.5 0 0 0 0-1H16.417C10.441 5 5.58 9.861 5.58 15.837v33.326C5.58 55.139 10.441 60 16.417 60h33.326c5.976 0 10.837-4.861 10.837-10.837V30.5a.5.5 0 0 0-.5-.5z"/></g><g><path fill="#4a3c3a" d="M33.58 27.5v-3.7c0-.875.998-1.8 1.942-1.8h4.058v-5h-4.535c-2.168.003-3.821.56-4.914 1.658-1.036 1.041-1.558 2.527-1.551 4.419V27.5a.5.5 0 0 1-.5.5h-2.5v4h2.5a.5.5 0 0 1 .5.5V48h6V32.5a.5.5 0 0 1 .5-.5h3.683c.107-.721.32-2.282.461-4H34.08a.5.5 0 0 1-.5-.5zm.999-3.7V27h5.184a.498.498 0 0 1 .499.536 64.683 64.683 0 0 1-.577 5.044.5.5 0 0 1-.493.42H35.58v15.5a.5.5 0 0 1-.5.5h-7a.5.5 0 0 1-.5-.5V33h-2.5a.5.5 0 0 1-.5-.5v-5a.5.5 0 0 1 .5-.5h2.5v-3.863h.5l-.5-.057c-.008-2.167.613-3.892 1.843-5.128 1.286-1.292 3.178-1.95 5.621-1.952h5.036a.5.5 0 0 1 .5.5v6a.5.5 0 0 1-.5.5h-4.558c-.47 0-.942.549-.943.8zM60.08 20a.5.5 0 0 1 .5.5v2a.5.5 0 0 1-1 0v-2a.5.5 0 0 1 .5-.5zm.5 4.5v4a.5.5 0 0 1-1 0v-4a.5.5 0 0 1 1 0z"/></g></g></g></svg>