<svg xmlns="http://www.w3.org/2000/svg" width="64" height="64" viewBox="0 0 64 64"><g><g><g><path fill="#4a3c3a" d="M8.521 61.033a.79.79 0 0 1-.426-1.456c.76-.485.518-1.735.515-1.747a.779.779 0 0 1-.018-.166l.064-50.09c0-3.09 2.83-6.823 6.344-6.823l39.637.005c.14-.007 4.356-.192 6.865 2.262 1.24 1.212 1.841 2.834 1.785 4.821a.79.79 0 0 1-.789.768l-30.137.05h-.001a.79.79 0 0 1 0-1.58l29.327-.05c-.103-1.173-.533-2.139-1.284-2.875-2.01-1.97-5.692-1.82-5.727-1.817l-39.675-.004c-2.566 0-4.764 2.884-4.764 5.245l-.064 50.013c.162.884.074 2.49-1.227 3.32a.786.786 0 0 1-.425.124z"/></g><g><path fill="#4a3c3a" d="M28.426 19.327a.395.395 0 0 0-.396-.395H13.8a.395.395 0 0 0 0 .79H28.03a.395.395 0 0 0 .396-.395zm.79-11.457a.791.791 0 0 0-.792-.79h-3.958a.791.791 0 1 0 0 1.58h3.958a.791.791 0 0 0 .792-.79zM9.024 63.97l46.047-.003c3.052.294 4.73-4.83 4.913-5.413a.802.802 0 0 0 .036-.237V7.87a.79.79 0 0 0-1.58 0v50.322c-.493 1.498-1.858 4.35-3.295 4.197l-46.189.002c-.25.024-6.135.474-6.568-3.96-.023-.548-.028-12.593-.028-15.794l7.09.02h.003a.79.79 0 0 0 .002-1.58l-7.882-.022h-.002a.79.79 0 0 0-.79.771c-.002.133-.003 16.365.032 16.728.424 4.351 4.694 5.447 7.42 5.447.282 0 .548-.012.79-.032z"/></g><g><path fill="#4a3c3a" d="M38.289 45.005H13.795a.395.395 0 0 1 0-.79H38.29a.395.395 0 0 1 0 .79zM55.68 57.657H45.403a.395.395 0 0 1 0-.79h9.883V45.004h-12.65V55.68a.395.395 0 0 1-.792 0V44.61c0-.218.178-.395.396-.395H55.68c.219 0 .396.177.396.395v12.651a.395.395 0 0 1-.396.396zM38.29 50.536H13.795a.395.395 0 0 1 0-.79H38.29a.395.395 0 0 1 0 .79zm0 5.53H13.795a.395.395 0 0 1 0-.79H38.29a.395.395 0 0 1 0 .79zM31.968 14.98H13.795a.395.395 0 0 1 0-.79h18.173a.395.395 0 0 1 0 .79zm24.494 0H47.77a.395.395 0 0 1 0-.79h8.692a.395.395 0 0 1 0 .79zm-11.052 0H34.339a.395.395 0 1 1 0-.79h11.07a.395.395 0 1 1 0 .79zm11.062 23.704H31.968a.395.395 0 0 1 0-.79h24.504a.395.395 0 0 1 0 .79zm-29.245 0H13.795a.395.395 0 0 1-.395-.395V25.647c0-.218.177-.395.395-.395h11.062a.395.395 0 0 1 0 .79H14.19v11.852h12.642v-9.877a.395.395 0 0 1 .79 0V38.29a.395.395 0 0 1-.395.395zm29.245-5.531H31.968a.395.395 0 0 1 0-.79h24.504a.395.395 0 0 1 0 .79zm0-5.53H31.968a.395.395 0 0 1 0-.791h24.504a.395.395 0 0 1 0 .79zm0-7.902H30.388a.395.395 0 0 1 0-.79h26.084a.395.395 0 0 1 0 .79z"/></g></g></g></svg>