<svg xmlns="http://www.w3.org/2000/svg" width="74" height="74" viewBox="0 0 74 74"><defs><filter id="8nnra" width="156%" height="156%" x="-18%" y="-18%" filterUnits="objectBoundingBox"><feGaussianBlur in="SourceGraphic" result="FeGaussianBlur1043Out" stdDeviation="2.5 2.5"/></filter><clipPath id="8nnrb"><path fill="#fff" d="M30 60c16.569 0 30-13.431 30-30C60 13.431 46.569 0 30 0 13.431 0 0 13.431 0 30c0 16.569 13.431 30 30 30z"/></clipPath></defs><g><g><g filter="url(#8nnra)"><path fill="#eff8ed" d="M38 68c16.569 0 30-13.431 30-30C68 21.431 54.569 8 38 8 21.431 8 8 21.431 8 38c0 16.569 13.431 30 30 30z"/></g><g opacity=".49"><path fill="none" stroke="#4a3c3a" stroke-miterlimit="20" d="M30 60c16.569 0 30-13.431 30-30C60 13.431 46.569 0 30 0 13.431 0 0 13.431 0 30c0 16.569 13.431 30 30 30z" clip-path="url(&quot;#8nnrb&quot;)"/></g><g><path fill="none" stroke="#979797" stroke-miterlimit="20" stroke-width=".5" d="M41.82 28.028L24.926 17.791c-1.517-.842-3.427.24-3.427 2.01v19.9c0 1.76 1.9 2.851 3.427 2.01l16.892-9.664c1.575-.87 1.575-3.138 0-4.019z"/></g></g></g></svg>