<svg xmlns="http://www.w3.org/2000/svg" width="149" height="149" viewBox="0 0 149 149"><defs><filter id="i32ea" width="156%" height="156%" x="-18%" y="-18%" filterUnits="objectBoundingBox"><feGaussianBlur in="SourceGraphic" result="FeGaussianBlur1018Out" stdDeviation="5 5"/></filter><clipPath id="i32eb"><path fill="#fff" d="M60 120c33.137 0 60-26.863 60-60S93.137 0 60 0 0 26.863 0 60s26.863 60 60 60z"/></clipPath></defs><g><g><g filter="url(#i32ea)"><path fill="#eff8ed" d="M76 136c33.137 0 60-26.863 60-60s-26.863-60-60-60-60 26.863-60 60 26.863 60 60 60z"/></g><g opacity=".49"><path fill="none" stroke="#4a3c3a" stroke-miterlimit="20" stroke-width="2" d="M60 120c33.137 0 60-26.863 60-60S93.137 0 60 0 0 26.863 0 60s26.863 60 60 60z" clip-path="url(&quot;#i32eb&quot;)"/></g><g><path fill="none" stroke="#979797" stroke-miterlimit="20" d="M83.639 56.057L49.853 35.582C46.82 33.898 43 36.06 43 39.6v39.802c0 3.52 3.8 5.702 6.853 4.018L83.64 64.094c3.148-1.742 3.148-6.277 0-8.037z"/></g></g></g></svg>