<svg xmlns="http://www.w3.org/2000/svg" width="53" height="53" viewBox="0 0 53 53"><g><g transform="rotate(-45 26.5 26.5)"><g><path fill="#4a3c3a" d="M45.168 13.825c0 8.93-7.265 16.193-16.193 16.193s-16.193-7.264-16.193-16.193c0-8.93 7.265-16.193 16.193-16.193s16.193 7.264 16.193 16.193zm1.542 0c0-9.779-7.955-17.735-17.735-17.735S11.24 4.046 11.24 13.825 19.195 31.56 28.975 31.56c9.779 0 17.735-7.956 17.735-17.735z"/></g><g><path fill="#4a3c3a" d="M28.981 36.95a.77.77 0 0 1-.771-.771V30.78a.77.77 0 1 1 1.542 0v5.398a.771.771 0 0 1-.77.77z"/></g><g><path fill="#4a3c3a" d="M28.98.711c-7.229 0-13.109 5.88-13.109 13.106s5.88 13.105 13.109 13.105c7.228 0 13.108-5.879 13.108-13.105C42.088 6.59 36.208.71 28.98.71zm0 26.983c-7.653 0-13.88-6.226-13.88-13.877C15.1 6.165 21.327-.06 28.98-.06c7.653 0 13.879 6.225 13.879 13.877 0 7.651-6.226 13.877-13.88 13.877zm-.005 9.264a3.084 3.084 0 0 0-3.08 3.084v15.417c0 1.7 1.381 3.083 3.08 3.083a3.084 3.084 0 0 0 3.079-3.083V40.042c0-1.7-1.381-3.084-3.08-3.084zm.01 23.127a4.633 4.633 0 0 1-4.632-4.626V40.041a4.633 4.633 0 0 1 4.632-4.625 4.633 4.633 0 0 1 4.631 4.625V55.46a4.634 4.634 0 0 1-4.631 4.626z"/></g><g><path fill="#4a3c3a" d="M27.047 54.69a.386.386 0 0 1-.386-.385v-1.542a.386.386 0 0 1 .771 0v1.542a.386.386 0 0 1-.385.386zm0-3.074a.386.386 0 0 1-.386-.386v-8.49a.386.386 0 1 1 .771 0v8.49a.386.386 0 0 1-.385.386zm6.168-10.805h-6.94a.386.386 0 0 1 0-.771h6.94a.386.386 0 0 1 0 .771z"/></g></g></g></svg>